<svg id="Layer_1" enable-background="new 0 0 512.016 512.016" height="512" viewBox="0 0 512.016 512.016" width="512" xmlns="http://www.w3.org/2000/svg"><g><g><path d="m125.008 253.888c-24.813 0-45-20.187-45-45s20.187-45 45-45 45 20.187 45 45-20.187 45-45 45z" fill="#ffcd00"/></g><g><path d="m327.986 287.389c-5.036 0-9.736-2.527-12.514-6.729l-45.942-69.5c-1.539-2.329-2.397-5.041-2.479-7.831-.029-.977-.043-1.958-.043-2.941 0-56.663 47.535-102.761 105.963-102.761 58.429 0 105.964 46.098 105.964 102.761 0 7.919-.93 15.763-2.771 23.413 10.269 14.17 15.844 31.135 15.844 48.587 0 8.284-6.716 15-15 15zm149.022-15.001h.01z" fill="#00cb75"/></g><g><path d="m73.008 284.889c-24.813 0-45-20.187-45-45s20.187-45 45-45 45 20.187 45 45-20.187 45-45 45z" fill="#ffde46"/></g><g><path d="m392.007 287.389c-1.155 0-2.316-.133-3.464-.406l-69.906-16.594c-5.289-1.255-9.484-5.274-10.967-10.504s-.019-10.853 3.825-14.696l69.906-69.906c4.291-4.29 10.745-5.574 16.347-3.251 5.605 2.321 9.26 7.791 9.26 13.858v86.5c0 4.588-2.1 8.923-5.698 11.768-2.675 2.113-5.96 3.231-9.303 3.231z" fill="#2a3edf"/></g><g><path d="m121.008 279.317c-4.936 0-9.557-2.428-12.356-6.496-2.813-4.088-3.423-9.304-1.627-13.931 17.177-44.263 64.613-74.002 118.039-74.002 23.661 0 48.835 7.399 70.885 20.833 21.65 13.191 38.922 31.265 48.632 50.89 2.295 4.637 2.037 10.13-.682 14.532-2.718 4.403-7.514 7.093-12.688 7.12l-210.128 1.053c-.025.001-.051.001-.075.001z" fill="#4793ff"/></g><path d="m344.58 256.611c-9.71-19.625-26.981-37.698-48.632-50.89-12.583-7.667-26.185-13.359-39.941-16.841v89.76l75.204-.377c5.174-.026 9.97-2.717 12.688-7.12 2.718-4.402 2.976-9.894.681-14.532z" fill="#525cdd"/><g><path d="m350.975 414.388h-189.934c-76.094 0-138-61.907-138-138v-4c0-8.284 6.716-15 15-15h435.934c8.284 0 15 6.716 15 15v4c0 76.093-61.907 138-138 138z" fill="#fff4f4"/></g><path d="m473.975 257.389h-217.968v157h94.967c76.094 0 138-61.907 138-138v-4c.001-8.285-6.715-15-14.999-15z" fill="#f6efea"/><g><path d="m497.016 287.389h-482.016c-8.284 0-15-6.716-15-15s6.716-15 15-15h482.016c8.284 0 15 6.716 15 15s-6.716 15-15 15z" fill="#f6efea"/></g><path d="m497.016 257.389h-241.009v30h241.008c8.284 0 15-6.716 15-15s-6.715-15-14.999-15z" fill="#eee1dc"/></g></svg>